<svg width="24" height="24" viewBox="0 0 24 24" fill="none" xmlns="http://www.w3.org/2000/svg">
<path d="M15.5385 10.0953L15.3964 9.95326C14.7481 9.32825 13.9369 8.85398 13.0055 8.60441C10.0988 7.82556 7.30743 9.47302 6.51387 12.4346C6.47103 12.5945 6.44776 12.774 6.41052 13.2254C6.25625 15.0955 5.81651 16.49 4.61062 17.9045C6.87049 18.793 9.54774 19.4189 11.5836 19.4189C14.0522 19.4189 16.2464 17.7597 16.8946 15.3405C17.4126 13.4072 16.8333 11.4384 15.5385 10.0953ZM13.3706 6.6333L18.3098 2.79171C18.7079 2.48209 19.2742 2.51735 19.6308 2.87396L22.625 5.86816C22.9817 6.22477 23.0169 6.79111 22.7073 7.1892L18.8667 12.1271C19.1598 13.3154 19.1656 14.5924 18.8264 15.8582C17.9283 19.21 14.8962 21.4189 11.5836 21.4189C8.08202 21.4189 3.58202 19.917 1.08202 18.417C5.0618 15.417 4.12924 13.6068 4.58202 11.917C5.64045 7.96687 9.42426 5.65964 13.3706 6.6333ZM16.7835 8.5119C16.8493 8.57535 16.9139 8.63993 16.9772 8.70562L18.1117 9.84013L20.5866 6.65815L18.8409 4.91239L15.6589 7.38727L16.7835 8.5119Z" fill="#FF820C"/>
</svg>
