<svg width="25" height="24" viewBox="0 0 25 24" fill="none" xmlns="http://www.w3.org/2000/svg">
<path d="M5.5 4.9967V7.9967H19.5V4.9967H5.5ZM4.5 2.9967H20.5C21.0523 2.9967 21.5 3.44442 21.5 3.9967V8.9967C21.5 9.54899 21.0523 9.9967 20.5 9.9967H4.5C3.94772 9.9967 3.5 9.54899 3.5 8.9967V3.9967C3.5 3.44442 3.94772 2.9967 4.5 2.9967ZM6.5 11.9967H12.5C13.0523 11.9967 13.5 12.4444 13.5 12.9967V15.9967H14.5V21.9967H10.5V15.9967H11.5V13.9967H5.5C4.94772 13.9967 4.5 13.549 4.5 12.9967V10.9967H6.5V11.9967ZM18.2322 13.7289L20 11.9612L21.7678 13.7289C22.7441 14.7052 22.7441 16.2882 21.7678 17.2645C20.7915 18.2408 19.2085 18.2408 18.2322 17.2645C17.2559 16.2882 17.2559 14.7052 18.2322 13.7289Z" fill="black"/>
</svg>
