<svg width="25" height="24" viewBox="0 0 25 24" fill="none" xmlns="http://www.w3.org/2000/svg">
<path d="M12.5 12.5858L16.7426 16.8284L15.3284 18.2426L13.5 16.415V22H11.5V16.413L9.67157 18.2426L8.25736 16.8284L12.5 12.5858ZM12.5 2C16.0934 2 19.0544 4.70761 19.4541 8.19395C21.7858 8.83154 23.5 10.9656 23.5 13.5C23.5 16.3688 21.3036 18.7246 18.5006 18.9776L18.5009 16.9644C20.1966 16.7214 21.5 15.2629 21.5 13.5C21.5 11.567 19.933 10 18 10C17.7912 10 17.5867 10.0183 17.3887 10.054C17.4616 9.7142 17.5 9.36158 17.5 9C17.5 6.23858 15.2614 4 12.5 4C9.73858 4 7.5 6.23858 7.5 9C7.5 9.36158 7.53838 9.7142 7.61205 10.0533C7.41331 10.0183 7.20879 10 7 10C5.067 10 3.5 11.567 3.5 13.5C3.5 15.2003 4.71241 16.6174 6.31986 16.934L6.50005 16.9646L6.50039 18.9776C3.69696 18.7252 1.5 16.3692 1.5 13.5C1.5 10.9656 3.21424 8.83154 5.54648 8.19411C5.94561 4.70761 8.90661 2 12.5 2Z" fill="black"/>
</svg>
