<svg width="24" height="24" viewBox="0 0 24 24" fill="none" xmlns="http://www.w3.org/2000/svg">
<path d="M2 11.6385C2 10.774 2.1097 9.93507 2.31595 9.13498C3.40622 9.1915 4.48848 8.64882 5.0718 7.63849C5.65467 6.62892 5.58406 5.42138 4.99121 4.50568C6.18354 3.33396 7.66832 2.45889 9.32603 2C9.8222 2.97252 10.8333 3.63849 12 3.63849C13.1667 3.63849 14.1778 2.97252 14.674 2C16.3317 2.45889 17.8165 3.33396 19.0088 4.50568C18.4159 5.42138 18.3453 6.62892 18.9282 7.63849C19.5115 8.64882 20.5938 9.1915 21.6841 9.13498C21.8903 9.93507 22 10.774 22 11.6385C22 12.503 21.8903 13.3419 21.6841 14.142C20.5938 14.0855 19.5115 14.6282 18.9282 15.6385C18.3453 16.6481 18.4159 17.8556 19.0088 18.7713C17.8165 19.943 16.3317 20.8181 14.674 21.277C14.1778 20.3045 13.1667 19.6385 12 19.6385C10.8333 19.6385 9.8222 20.3045 9.32603 21.277C7.66832 20.8181 6.18354 19.943 4.99121 18.7713C5.58406 17.8556 5.65467 16.6481 5.0718 15.6385C4.48848 14.6282 3.40622 14.0855 2.31595 14.142C2.1097 13.3419 2 12.503 2 11.6385ZM6.80385 14.6385C7.43395 15.7299 7.61458 16.9846 7.36818 18.1623C7.77597 18.4525 8.21005 18.7039 8.66489 18.9128C9.56176 18.1099 10.7392 17.6385 12 17.6385C13.2608 17.6385 14.4382 18.1099 15.3351 18.9128C15.7899 18.7039 16.224 18.4525 16.6318 18.1623C16.3854 16.9846 16.566 15.7299 17.1962 14.6385C17.8262 13.5472 18.8225 12.7635 19.9655 12.388C19.9884 12.1402 20 11.8903 20 11.6385C20 11.3868 19.9884 11.1368 19.9655 10.8891C18.8225 10.5136 17.8262 9.72987 17.1962 8.63849C16.566 7.54712 16.3854 6.29245 16.6318 5.11472C16.224 4.82455 15.7899 4.57314 15.3351 4.36419C14.4382 5.16711 13.2608 5.63849 12 5.63849C10.7392 5.63849 9.56176 5.16711 8.66489 4.36419C8.21005 4.57314 7.77597 4.82455 7.36818 5.11472C7.61458 6.29245 7.43395 7.54712 6.80385 8.63849C6.17376 9.72987 5.17754 10.5136 4.03451 10.8891C4.01157 11.1368 4 11.3868 4 11.6385C4 11.8903 4.01157 12.1402 4.03451 12.388C5.17754 12.7635 6.17376 13.5472 6.80385 14.6385ZM12 14.6385C10.3431 14.6385 9 13.2954 9 11.6385C9 9.98167 10.3431 8.63849 12 8.63849C13.6569 8.63849 15 9.98167 15 11.6385C15 13.2954 13.6569 14.6385 12 14.6385ZM12 12.6385C12.5523 12.6385 13 12.1908 13 11.6385C13 11.0862 12.5523 10.6385 12 10.6385C11.4477 10.6385 11 11.0862 11 11.6385C11 12.1908 11.4477 12.6385 12 12.6385Z" fill="black"/>
</svg>